<svg width="170" height="69" viewBox="0 0 170 69" fill="none" xmlns="http://www.w3.org/2000/svg">
<g clip-path="url(#clip0_1839_1708)">
<path d="M53.0892 14.7333C52.9017 14.5183 52.6502 14.3673 52.3705 14.3017C52.0909 14.236 51.7974 14.2593 51.5319 14.368C51.2774 14.4642 51.0516 14.6222 50.8753 14.8273C50.6991 15.0325 50.5781 15.2781 50.5234 15.5416L49.2545 22.0586C49.1913 22.341 49.2283 22.6363 49.3594 22.895C49.4905 23.1537 49.7076 23.3601 49.9745 23.4797C50.1476 23.5561 50.3349 23.5959 50.5245 23.5965C50.8925 23.5927 51.2475 23.4615 51.5276 23.2258L55.4795 19.9599C55.7542 19.7274 55.9434 19.4119 56.0177 19.0624C56.0551 18.8779 56.0521 18.6876 56.0086 18.5044C55.9652 18.3212 55.8824 18.1493 55.7658 18.0003L53.0892 14.7333Z" fill="#33245C"/>
<path d="M52.1077 38.5074C51.9268 39.291 51.4918 39.995 50.8687 40.5126C50.2456 41.0301 49.4684 41.3329 48.6551 41.375H11.2113C10.89 41.3865 10.5703 41.3268 10.2754 41.2004C9.98063 41.0739 9.71825 40.8839 9.50759 40.6443C9.30178 40.3837 9.15773 40.0809 9.08603 39.7582C9.01433 39.4354 9.01678 39.1009 9.09322 38.7793L12.661 20.4486L20.0871 21.4831L21.0988 16.2788L13.7577 14.8907L14.7973 9.54938C14.8191 9.44434 14.8328 9.33783 14.8382 9.23076L14.8619 9.05232L14.7317 8.19308L14.2377 7.36465L13.8664 7.04603L4.37064 2.73074C3.65874 2.47596 2.87904 2.47449 2.16615 2.72657C1.45326 2.97866 0.851943 3.46848 0.466018 4.11146C0.245132 4.45144 0.0994954 4.83362 0.0386617 5.23299C-0.022172 5.63236 0.00316562 6.03991 0.113005 6.42895C0.205745 6.74502 0.36641 7.03764 0.584078 7.2869C0.801745 7.53616 1.0713 7.73621 1.37437 7.8734L8.76497 11.2243L1.27966 49.6827C0.876268 51.322 1.10272 53.0506 1.91528 54.5347C2.72785 56.0188 4.06888 57.1531 5.67936 57.7185C5.13937 58.6224 4.75837 59.6099 4.55253 60.6393C4.31851 61.6702 4.32206 62.7399 4.56291 63.7693C4.80377 64.7988 5.27578 65.7617 5.94412 66.587C6.61525 67.3684 7.45562 67.9911 8.40321 68.4091C9.3508 68.8271 10.3814 69.0298 11.419 69.0022C13.7297 68.9136 15.9452 68.0703 17.7178 66.6048C19.4904 65.1392 20.7197 63.1344 21.2129 60.9048C21.3851 60.0352 21.4124 59.1437 21.2936 58.2655L21.2742 58.1402H34.3754C33.9619 58.9285 33.6647 59.7711 33.4929 60.6425C33.259 61.6733 33.2625 62.7428 33.5029 63.7721C33.7434 64.8014 34.2147 65.7645 34.8823 66.5902C35.5534 67.3707 36.3933 67.9925 37.3403 68.41C38.2873 68.8274 39.3172 69.0298 40.354 69.0022C42.6647 68.9136 44.8802 68.0703 46.6527 66.6048C48.4253 65.1392 49.6546 63.1344 50.1478 60.9048C50.3811 59.8738 50.3772 58.8043 50.1364 57.775C49.8956 56.7457 49.424 55.7828 48.7562 54.9571C48.0859 54.1769 47.2467 53.5552 46.3004 53.1377C45.3542 52.7203 44.325 52.5178 43.2889 52.5451H9.03941C8.71816 52.5566 8.39839 52.4969 8.10357 52.3704C7.80875 52.244 7.54638 52.054 7.33571 51.8144C7.13002 51.5535 6.98606 51.2505 6.91437 50.9276C6.84267 50.6047 6.84506 50.2701 6.92136 49.9483L7.59402 46.4922L7.71132 46.5336C8.57304 46.8336 9.48066 46.9848 10.3944 46.9808H47.8371C50.1761 46.8908 52.4186 46.0366 54.2122 44.5523C56.0058 43.0679 57.2489 41.0376 57.7461 38.7803L58.704 33.8618H53.0096L52.1077 38.5074ZM15.5927 60.6255C15.418 61.3828 14.9977 62.0632 14.3955 62.5633C13.7934 63.0634 13.0423 63.356 12.2563 63.3965C11.9477 63.4074 11.6406 63.3498 11.3575 63.2282C11.0744 63.1065 10.8225 62.9238 10.6204 62.6934C10.4216 62.4409 10.2824 62.1477 10.2131 61.8353C10.1438 61.5229 10.1462 61.1992 10.2201 60.8878C10.3942 60.1303 10.8144 59.4496 11.4167 58.9494C12.0189 58.4492 12.7703 58.1568 13.5564 58.1168C13.8652 58.1059 14.1725 58.1634 14.4557 58.2851C14.739 58.4068 14.9911 58.5895 15.1934 58.8199C15.3926 59.0723 15.5321 59.3654 15.6017 59.6778C15.6714 59.9901 15.6694 60.3139 15.5959 60.6255H15.5927ZM44.5223 60.6255C44.3481 61.383 43.9279 62.0637 43.3256 62.5639C42.7234 63.0641 41.972 63.3565 41.1859 63.3965C40.8776 63.4073 40.5709 63.3497 40.2881 63.228C40.0054 63.1063 39.7539 62.9236 39.5522 62.6934C39.3531 62.441 39.2138 62.1478 39.1445 61.8354C39.0752 61.523 39.0777 61.1992 39.1518 60.8878C39.3256 60.1301 39.7457 59.4492 40.348 58.949C40.9504 58.4487 41.7019 58.1565 42.4882 58.1168C42.7966 58.1059 43.1036 58.1634 43.3865 58.2851C43.6695 58.4068 43.9211 58.5895 44.123 58.8199C44.3224 59.0721 44.4619 59.3653 44.5314 59.6777C44.6009 59.9902 44.5985 60.314 44.5244 60.6255" fill="#33245C"/>
<path d="M62.1921 10.7665C61.708 10.2018 61.1016 9.75148 60.4176 9.44891C59.7336 9.14633 58.9895 8.99918 58.2402 9.01831H55.2374L55.8143 6.04445C55.9833 5.2988 55.9804 4.52519 55.8056 3.78082C55.6309 3.03645 55.2888 2.34037 54.8048 1.74403C54.3201 1.17909 53.7131 0.72872 53.0286 0.426148C52.344 0.123576 51.5994 -0.0234838 50.8496 -0.00417681H42.7529C41.1016 0.0590492 39.5182 0.661408 38.2512 1.70842C36.9841 2.75543 36.1051 4.18788 35.7519 5.78106L35.1234 9.01301H31.8538C30.2016 9.07683 28.6177 9.68004 27.3505 10.728C26.0832 11.776 25.2043 13.2095 24.8517 14.8035L23.2954 22.7979C23.1277 23.5425 23.1314 24.3148 23.3063 25.0578C23.4812 25.8007 23.8229 26.4955 24.306 27.0909C24.7909 27.6567 25.3982 28.1078 26.0834 28.4109C26.7685 28.714 27.5139 28.8615 28.2645 28.8423H31.2629L30.6839 31.8162C30.5158 32.5608 30.5193 33.3332 30.694 34.0764C30.8687 34.8196 31.2103 35.5146 31.6934 36.1102C32.1779 36.676 32.7848 37.1274 33.4695 37.4311C34.1542 37.7347 34.8992 37.8829 35.6497 37.8648H43.7517C45.4021 37.8016 46.9846 37.1994 48.2507 36.1527C49.5169 35.1061 50.395 33.6741 50.7473 32.0817L51.3769 28.8465H54.6509C56.3012 28.7832 57.8836 28.1809 59.1497 27.1343C60.4158 26.0876 61.294 24.6558 61.6465 23.0634L63.2027 15.0691C63.3712 14.3228 63.3679 13.5488 63.193 12.8039C63.0181 12.0591 62.6761 11.3625 62.1921 10.7655V10.7665ZM58.9365 14.8078L57.3802 22.8022C57.2661 23.2959 56.9918 23.7393 56.5991 24.0652C56.2063 24.3911 55.7165 24.5816 55.2041 24.6077H47.8856L46.4864 31.8162C46.372 32.3118 46.0968 32.7571 45.7027 33.0844C45.3086 33.4118 44.8171 33.6034 44.3027 33.6302H36.2018C36.0104 33.6378 35.8198 33.6029 35.6438 33.5283C35.4678 33.4537 35.3109 33.3412 35.1847 33.199C35.062 33.0418 34.9765 32.8595 34.9344 32.6654C34.8923 32.4713 34.8947 32.2705 34.9415 32.0774L36.3955 24.6077H28.8133C28.6231 24.6158 28.4335 24.5818 28.2583 24.5083C28.0831 24.4348 27.9267 24.3236 27.8006 24.1829C27.6781 24.0262 27.5926 23.8444 27.5506 23.6509C27.5085 23.4574 27.5108 23.257 27.5574 23.0645L29.1136 15.0701C29.2268 14.5735 29.5013 14.1269 29.8953 13.7983C30.2892 13.4697 30.7812 13.2771 31.2963 13.2497H38.6083L40.0074 6.0487C40.1209 5.55122 40.3961 5.10403 40.7912 4.77534C41.1862 4.44666 41.6794 4.25453 42.1954 4.22827H50.2974C50.4873 4.22037 50.6766 4.25442 50.8514 4.32792C51.0262 4.40142 51.1822 4.51252 51.308 4.65311C51.4315 4.81119 51.5176 4.99452 51.5601 5.18967C51.6025 5.38483 51.6003 5.58688 51.5534 5.78106L50.1005 13.2455H57.6859C57.8751 13.2377 58.0637 13.2718 58.2378 13.3453C58.412 13.4188 58.5672 13.5298 58.6922 13.6703C58.8155 13.8291 58.9013 14.013 58.9434 14.2087C58.9855 14.4044 58.9828 14.6069 58.9354 14.8014" fill="#33245C"/>
<path d="M49.1447 9.75755L46.6048 6.65199C46.4798 6.50751 46.3243 6.39183 46.1491 6.31311C45.974 6.23438 45.7835 6.19453 45.591 6.19635C45.2241 6.19943 44.8702 6.33077 44.5922 6.56702L40.6531 9.82658C40.4378 10.0019 40.2742 10.2312 40.1795 10.4904C40.0849 10.7496 40.0626 11.0291 40.115 11.2997C40.1825 11.5798 40.3451 11.8288 40.5757 12.0052C40.8063 12.1815 41.0911 12.2748 41.3828 12.2694H48.0136C48.3805 12.2606 48.7336 12.13 49.016 11.8988C49.2984 11.6675 49.4935 11.3491 49.5699 10.9949C49.6169 10.7708 49.6028 10.5383 49.5291 10.3213C49.4553 10.1043 49.3246 9.91051 49.1501 9.75967" fill="#33245C"/>
<path d="M44.9851 26.2827H38.3747C38.1025 26.2874 37.8359 26.36 37.5998 26.4937C37.3636 26.6274 37.1656 26.8179 37.024 27.0474C36.8653 27.2843 36.7857 27.5643 36.7963 27.8481C36.8069 28.1319 36.9072 28.4053 37.0832 28.63L39.7351 31.8598C39.8555 32.0175 40.0122 32.1447 40.1922 32.231C40.3722 32.3172 40.5704 32.36 40.7705 32.3558C41.1394 32.3511 41.4949 32.2184 41.7746 31.9809L45.7083 28.7245C45.9229 28.5564 46.0869 28.3338 46.1829 28.0806C46.2788 27.8274 46.3031 27.5532 46.2529 27.2875C46.1964 26.9985 46.0372 26.7389 45.804 26.5555C45.5707 26.3721 45.2788 26.2768 44.9808 26.287" fill="#33245C"/>
<path d="M36.035 14.3849C35.7774 14.2781 35.4946 14.2452 35.2189 14.2899C34.9432 14.3346 34.6859 14.4552 34.4766 14.6377L30.5375 17.8983C30.255 18.1294 30.0617 18.4492 29.9897 18.8043C29.9508 18.9908 29.9537 19.1834 29.9981 19.3687C30.0426 19.554 30.1275 19.7274 30.2469 19.877L32.9171 23.1302C33.0396 23.2797 33.1951 23.3996 33.3718 23.4807C33.5484 23.5619 33.7415 23.6022 33.9363 23.5986C34.1208 23.597 34.3034 23.561 34.4744 23.4923C34.7276 23.3953 34.9525 23.2377 35.1289 23.0338C35.3052 22.83 35.4276 22.5861 35.485 22.324L36.7528 15.807C36.8151 15.5254 36.7783 15.2312 36.6484 14.9731C36.5185 14.7149 36.3032 14.5082 36.0382 14.387" fill="#33245C"/>
<path d="M91.4801 22.8628H97.6944L95.8196 28.067C95.3109 29.4502 94.4846 30.6984 93.4053 31.7137C92.3261 32.729 91.0232 33.4839 89.5988 33.9192L89.545 33.9351C87.9312 34.4299 86.2539 34.6942 84.5641 34.72C82.6775 34.774 80.812 34.3158 79.171 33.3955C77.7192 32.5599 76.5851 31.2776 75.9423 29.7451C75.2706 28.067 75.0916 26.2362 75.4257 24.4623C75.7862 22.1619 76.7509 19.9948 78.224 18.1768C79.7207 16.3059 81.6323 14.7988 83.8118 13.7712C86.0312 12.7063 88.4688 12.1583 90.9366 12.1696C92.6084 12.163 94.2657 12.4768 95.8163 13.0936C97.227 13.6188 98.4935 14.4627 99.5143 15.5577L97.0185 17.8348C96.3746 18.4638 95.5545 18.8879 94.6641 19.0526C93.7736 19.2173 92.8535 19.115 92.0225 18.7588L91.9967 18.7461C91.1696 18.3379 90.2588 18.1221 89.3341 18.1152C88.3355 18.1207 87.3561 18.3863 86.4949 18.8852C85.5655 19.4175 84.7674 20.1468 84.1584 21.0206C83.5494 21.8943 83.1447 22.8907 82.9734 23.9376C82.8395 24.5329 82.8306 25.149 82.9474 25.7478C83.0642 26.3466 83.3042 26.9155 83.6525 27.4191C83.9933 27.8679 84.4413 28.2266 84.9566 28.463C85.4718 28.6995 86.0384 28.8065 86.6058 28.7744C87.6313 28.7197 88.6395 28.4904 89.5859 28.0968L91.4801 22.8628Z" fill="#33245C"/>
<path d="M109.837 31.1916H101.625L99.4842 34.2419C96.2242 34.2419 94.7487 30.7465 96.8473 27.9755L108.419 12.6474H112.401C113.336 12.6137 114.248 12.94 114.944 13.5573C115.64 14.1746 116.066 15.0346 116.132 15.9558L117.688 34.244H113.055C112.639 34.2588 112.224 34.191 111.835 34.0445C111.446 33.898 111.091 33.676 110.791 33.3914C110.491 33.1069 110.252 32.7657 110.088 32.3882C109.924 32.0106 109.838 31.6044 109.837 31.1937V31.1916ZM105.187 26.0797H109.746L109.592 19.7942L105.187 26.0797Z" fill="#33245C"/>
<path d="M143.633 12.6296C147.615 12.6296 150.04 16.212 148.667 20.0642L143.629 34.2209C140.342 34.2209 138.34 31.265 139.47 28.0798L141.481 22.421L133.624 32.1264H128.909L127.992 22.3902L123.77 34.2209C120.484 34.2209 118.483 31.264 119.617 28.0809L125.117 12.6242C127.218 12.5479 129.271 13.2568 130.866 14.6093C132.461 15.9618 133.479 17.8583 133.719 19.9198L134.22 23.9005L141.837 14.7771L143.633 12.6296Z" fill="#33245C"/>
<path d="M169.712 18.0526H158.439L157.455 20.7078H167.728L165.771 26.1245H155.499L154.51 28.8052H166.094L164.138 34.2283H147.018C146.821 34.2323 146.626 34.1872 146.452 34.0971C146.277 34.007 146.129 33.8749 146.02 33.7129C145.911 33.551 145.846 33.3645 145.83 33.1709C145.813 32.9773 145.847 32.7827 145.928 32.6054L153.151 12.6317H166.066C166.724 12.6183 167.375 12.7692 167.958 13.0702C168.54 13.3713 169.037 13.8128 169.401 14.3537C169.765 14.8947 169.984 15.5176 170.039 16.1646C170.093 16.8116 169.982 17.4617 169.714 18.0547" fill="#33245C"/>
<path d="M91.3639 42.8334H80.9974L79.6543 46.5603H89.3663L87.4097 51.9833H77.6987L75.1426 59.008H67.8984L75.7098 37.4103H88.6872C89.231 37.3995 89.7687 37.5244 90.2505 37.7735C90.7323 38.0225 91.1425 38.3876 91.4431 38.8349C91.7437 39.2822 91.9249 39.7972 91.9699 40.3321C92.015 40.8669 91.9224 41.4044 91.7007 41.8945L91.3639 42.8334Z" fill="#33245C"/>
<path d="M99.9943 41.938L93.8188 59.0079H89.4998C89.1567 59.0149 88.8173 58.9362 88.5133 58.779C88.2093 58.6219 87.9504 58.3915 87.7608 58.1092C87.5712 57.8269 87.4569 57.5019 87.4286 57.1644C87.4004 56.8268 87.459 56.4877 87.5991 56.1785L94.386 37.4113H96.9507C97.4998 37.4001 98.0429 37.5261 98.5295 37.7775C99.0161 38.0289 99.4304 38.3975 99.734 38.8493C100.038 39.301 100.22 39.8211 100.266 40.3613C100.311 40.9015 100.217 41.4442 99.9932 41.939" fill="#33245C"/>
<path d="M118.676 38.0444C120.072 38.6969 121.269 39.701 122.147 40.9556L119.569 43.2529C118.965 43.8471 118.172 44.2185 117.324 44.3051C116.475 44.3917 115.623 44.1883 114.908 43.7288L114.885 43.7128C114.192 43.1896 113.344 42.903 112.471 42.8961C111.526 42.8992 110.6 43.1562 109.792 43.6395C108.922 44.152 108.181 44.8525 107.624 45.6883C107.027 46.5626 106.634 47.557 106.473 48.5995C106.218 49.7471 106.431 50.9477 107.065 51.9419C107.362 52.3696 107.766 52.7147 108.237 52.9441C108.708 53.1734 109.231 53.2793 109.756 53.2515C110.706 53.213 111.638 52.9771 112.49 52.559C113.542 52.0831 114.523 51.4662 115.404 50.7258L116.696 52.6206C116.921 53.0282 117.061 53.4765 117.107 53.9387C117.152 54.4009 117.103 54.8674 116.961 55.3103C116.82 55.7532 116.589 56.1633 116.283 56.516C115.977 56.8687 115.602 57.1568 115.18 57.3629C114.534 57.7183 113.868 58.0374 113.185 58.3187C111.475 59.0626 109.634 59.4654 107.766 59.504C105.917 59.5596 104.089 59.1006 102.492 58.1796C101.069 57.3328 99.9709 56.0431 99.3712 54.5133C98.7332 52.8211 98.5718 50.99 98.9041 49.2145C99.2611 46.9351 100.2 44.7829 101.633 42.9609C103.077 41.0996 104.935 39.592 107.065 38.5553C109.198 37.496 111.553 36.9473 113.94 36.9537C115.581 36.9484 117.201 37.3231 118.668 38.0476" fill="#33245C"/>
<path d="M131.698 55.9564H123.486L121.345 59.0057C118.084 59.0057 116.609 55.5114 118.708 52.7394L130.279 37.4101H134.83C135.611 37.3823 136.372 37.6547 136.953 38.1699C137.534 38.685 137.89 39.4027 137.945 40.1716L139.548 59.0057H134.92C134.504 59.0207 134.089 58.9529 133.7 58.8066C133.311 58.6603 132.956 58.4383 132.656 58.1538C132.356 57.8694 132.117 57.5283 131.953 57.1508C131.789 56.7733 131.703 56.3671 131.702 55.9564H131.698ZM127.051 50.8424H131.61L131.456 44.557L127.051 50.8424Z" fill="#33245C"/>
</g>
<defs>
<clipPath id="clip0_1839_1708">
<rect width="170" height="69" fill="white"/>
</clipPath>
</defs>
</svg>
